<?xml version="1.0" encoding="utf-8"?>
<!-- Generator: Adobe Illustrator 19.0.0, SVG Export Plug-In . SVG Version: 6.00 Build 0)  -->
<svg version="1.1" id="Layer_1" xmlns="http://www.w3.org/2000/svg" xmlns:xlink="http://www.w3.org/1999/xlink" x="0px" y="0px"
	 viewBox="0 0 200 200" style="enable-background:new 0 0 200 200;" xml:space="preserve">
<style type="text/css">
	.st0{fill:#1A1A1A;}
	.st1{fill:#F2F2F2;}
</style>
<g id="XMLID_31_">
	<polygon id="XMLID_9_" class="st0" points="162.4,91 156.2,108 104.2,108 110.4,91 	"/>
	<path id="XMLID_8_" class="st0" d="M155.5,113c-1.4,6-3.9,11.8-7.3,17.1c-10,15.8-27.7,25.9-47.8,25.9c-31.2,0-56.5-25.5-56.5-56.6
		c0-31.2,25.4-56.6,56.5-56.6c20.1,0,37.8,10.5,47.8,26.4l-0.2,0l-19.2,6.9c0,0,0,0,0,0c-6.7-8.3-17-13.5-28.4-13.5
		c-20.3,0-36.7,16.5-36.7,36.8c0,20.3,16.5,36.8,36.7,36.8c11.5,0,21.7-4.7,28.5-12.9c2.6-3.2,4.7-7.3,6.1-10.3H155.5z"/>
</g>
<path id="XMLID_28_" class="st0" d="M99.7,3.5c-52.9,0-96,43.1-96,96c0,52.9,43.1,96,96,96s96-43.1,96-96
	C195.7,46.5,152.6,3.5,99.7,3.5z M99.7,178.1c-43.4,0-78.7-35.3-78.7-78.7c0-43.4,35.3-78.7,78.7-78.7s78.7,35.3,78.7,78.7
	C178.3,142.8,143,178.1,99.7,178.1z"/>
<path id="XMLID_15_" class="st1" d="M99.7,20.8C56.3,20.8,21,56.1,21,99.5c0,43.4,35.3,78.7,78.7,78.7s78.7-35.3,78.7-78.7
	C178.3,56.1,143,20.8,99.7,20.8z M148.2,130.1c-10,15.8-27.7,25.9-47.8,25.9c-31.2,0-56.5-25.5-56.5-56.6
	c0-31.2,25.4-56.6,56.5-56.6c20.1,0,37.8,10.5,47.8,26.4l-0.2,0l-19.2,6.9c0,0,0,0,0,0c-6.7-8.3-17-13.5-28.4-13.5
	c-20.3,0-36.7,16.5-36.7,36.8c0,20.3,16.5,36.8,36.7,36.8c11.5,0,21.7-4.7,28.5-12.9c2.6-3.2,4.7-7.3,6.1-10.3h20.5
	C154,119,151.6,124.8,148.2,130.1z M104.2,108l6.2-17h52l-6.2,17H104.2z"/>
</svg>
